<?xml version="1.0" standalone="no"?>
<!DOCTYPE svg PUBLIC "-//W3C//DTD SVG 20010904//EN"
 "http://www.w3.org/TR/2001/REC-SVG-20010904/DTD/svg10.dtd">
<svg version="1.0" xmlns="http://www.w3.org/2000/svg"
 width="1024.000000pt" height="1024.000000pt" viewBox="0 0 1024.000000 1024.000000"
 preserveAspectRatio="xMidYMid meet">

<g transform="translate(0.000000,1024.000000) scale(0.100000,-0.100000)"
fill="#000000" stroke="none">
<path d="M4935 8699 c-286 -145 -760 -405 -812 -445 -70 -53 -37 -76 120 -84
104 -6 124 -5 132 8 44 67 80 92 223 155 81 35 198 84 260 107 112 43 113 43
133 24 19 -20 19 -20 -33 -38 -225 -80 -453 -185 -503 -232 l-30 -29 122 -3
c118 -2 123 -4 128 -25 2 -12 11 -89 20 -172 15 -143 15 -151 -2 -163 -10 -7
-56 -39 -102 -71 -271 -190 -472 -457 -605 -803 l-37 -96 -52 -12 c-360 -85
-741 -433 -846 -774 -26 -84 -26 -122 -1 -163 29 -49 54 -58 155 -56 193 4
344 -26 483 -95 l72 -36 0 -95 c0 -53 3 -125 6 -161 l6 -65 -110 -72 c-122
-81 -307 -250 -366 -337 -71 -102 -55 -175 49 -232 91 -51 291 -93 437 -94
l68 0 -7 -60 -6 -60 56 -56 56 -56 -11 -87 c-27 -222 -107 -422 -218 -544 -34
-37 -67 -67 -74 -67 -7 0 -21 19 -33 43 -34 71 -137 191 -214 251 -84 66 -206
127 -299 151 -160 41 -349 37 -499 -10 -130 -41 -163 -86 -83 -114 60 -22 142
-81 183 -134 22 -27 64 -98 95 -159 74 -143 131 -217 206 -267 33 -23 65 -41
71 -41 7 0 -5 -14 -25 -30 -47 -39 -111 -135 -138 -208 -12 -31 -34 -121 -50
-200 -32 -164 -60 -228 -131 -306 -27 -30 -49 -61 -49 -69 0 -29 65 -40 204
-34 144 6 238 26 356 76 246 105 422 323 475 588 4 18 8 33 10 33 2 0 50 -11
107 -25 371 -90 791 -68 1184 61 312 103 571 247 817 453 96 80 112 90 159 96
90 12 201 52 230 82 30 32 48 72 48 110 0 13 15 52 34 86 44 79 116 257 150
368 l26 86 83 7 c45 4 106 9 134 10 59 4 78 15 97 60 11 25 26 36 77 55 137
51 276 139 392 250 185 177 276 379 211 468 -48 66 -157 89 -374 79 -80 -3
-191 -14 -248 -24 -100 -18 -122 -15 -122 13 0 6 13 24 30 40 16 16 42 46 57
68 16 23 44 47 68 57 71 31 121 75 149 131 33 67 33 118 1 188 -36 76 -45 124
-33 171 8 31 16 42 37 46 267 61 422 148 482 272 51 104 19 253 -73 343 -54
53 -163 106 -236 115 -32 4 -60 12 -64 18 -4 6 -8 29 -8 51 -1 120 -96 358
-212 528 -216 319 -581 519 -1013 555 l-89 7 -62 153 -61 153 174 102 c255
150 298 179 301 205 3 16 -4 25 -23 32 -16 6 -228 10 -563 10 l-537 0 -120
-61z m1105 -655 c271 -46 548 -182 715 -353 l49 -51 -36 0 c-62 0 -79 -52 -25
-78 16 -8 54 -15 84 -17 56 -4 57 -4 90 -57 41 -63 83 -143 83 -157 0 -6 -11
-6 -28 -2 -43 13 -90 1 -122 -31 -61 -60 -66 -177 -16 -334 6 -20 -1 -24 -75
-48 -123 -40 -319 -143 -319 -168 0 -5 3 -8 8 -6 195 100 311 140 477 163 128
19 214 18 293 0 124 -29 215 -92 260 -179 46 -90 30 -234 -32 -285 -13 -11
-16 -11 -16 3 0 34 -37 56 -93 56 -77 0 -141 -22 -337 -115 -285 -135 -390
-161 -619 -152 -114 4 -168 11 -245 31 -110 30 -246 83 -246 97 0 5 12 11 28
15 47 10 54 14 49 27 -6 18 -81 14 -112 -7 -39 -25 -66 -75 -63 -115 4 -45 24
-51 32 -10 7 37 23 59 42 59 7 0 73 -57 146 -126 251 -236 463 -348 688 -361
120 -7 195 12 234 58 32 38 33 62 2 130 -46 105 -43 179 8 179 23 0 23 -2 18
-68 -4 -61 -1 -76 28 -142 51 -116 31 -186 -73 -261 -85 -61 -274 -92 -414
-66 -60 10 -55 -9 6 -27 71 -21 170 -29 219 -18 23 6 42 7 42 2 0 -16 -127
-144 -184 -184 -119 -84 -267 -142 -444 -171 -128 -22 -435 -16 -577 10 -589
108 -1249 428 -1635 791 l-70 66 6 57 c12 121 57 372 89 496 91 353 250 634
490 863 59 56 152 132 207 169 l99 66 70 -13 c82 -14 472 -5 529 12 42 13 266
147 375 223 l80 57 70 -6 c39 -4 113 -13 165 -22z m950 -779 c59 -30 106 -128
117 -242 l6 -63 -27 0 c-26 0 -27 1 -21 48 16 123 -84 257 -178 238 -30 -6
-30 -6 -12 14 22 24 74 26 115 5z m-22 -77 c17 -17 15 -53 -3 -68 -25 -21 -65
3 -65 38 0 16 3 32 7 35 11 11 48 8 61 -5z m-3063 -503 c-27 -94 -75 -361 -75
-418 0 -28 -6 -40 -29 -56 -41 -30 -57 -80 -41 -137 12 -41 10 -123 -6 -271
l-6 -52 -61 30 c-103 53 -232 80 -397 86 -80 2 -157 9 -172 15 -62 23 -58 106
12 252 140 294 412 531 725 632 39 12 71 19 73 15 1 -5 -9 -48 -23 -96z m-84
-600 c5 4 6 -1 2 -10 -5 -13 -7 -14 -14 -3 -5 7 -8 18 -8 23 0 6 3 4 6 -3 2
-6 9 -10 14 -7z m2715 -50 c32 -13 37 -13 51 0 18 19 114 10 157 -14 16 -9 39
-22 52 -29 12 -7 33 -29 45 -48 26 -42 17 -53 -41 -55 -19 0 -43 -2 -52 -4
-10 -2 -18 1 -18 6 0 6 -31 8 -70 7 -41 -2 -74 1 -78 7 -9 14 -182 86 -215 89
-15 2 -34 9 -43 17 -14 12 -12 14 23 25 54 17 148 17 189 -1z m-2709 -87 c-3
-8 -6 -5 -6 6 -1 11 2 17 5 13 3 -3 4 -12 1 -19z m173 -70 c0 -12 -6 -9 -26
13 -19 22 -19 22 4 8 12 -8 22 -17 22 -21z m71 9 c-1 -12 -15 -9 -19 4 -3 6 1
10 8 8 6 -3 11 -8 11 -12z m-76 -73 c28 -26 43 -43 35 -37 -8 5 -22 9 -30 8
-8 0 -21 8 -28 17 -13 18 -38 15 -27 -3 3 -5 -1 -6 -10 -3 -11 5 -15 14 -11
27 3 11 0 29 -5 39 -9 17 -8 18 8 9 10 -6 41 -32 68 -57z m56 34 c6 1 7 -2 4
-8 -8 -13 -45 16 -45 34 0 6 8 2 16 -9 8 -11 20 -19 25 -17z m-136 -8 c3 -5
-1 -10 -10 -10 -9 0 -13 5 -10 10 3 6 8 10 10 10 2 0 7 -4 10 -10z m-46 -87
c9 9 11 8 6 -5 -4 -10 -13 -18 -19 -18 -8 0 -17 -23 -22 -57 -13 -84 -34 -82
-34 4 0 37 3 79 7 92 l6 24 22 -26 c17 -19 25 -23 34 -14z m491 -64 c0 -6 4
-8 8 -5 4 2 14 0 22 -5 13 -8 12 -12 -4 -24 -11 -8 -16 -20 -12 -30 5 -13 -2
-12 -35 7 -22 12 -46 29 -52 37 -10 12 -6 13 28 7 35 -6 38 -5 23 7 -26 20
-24 41 2 27 11 -6 20 -15 20 -21z m-34 -105 c0 -1 -41 -4 -91 -7 -87 -6 -89
-5 -50 8 22 8 45 13 52 11 16 -7 24 19 10 34 -7 6 9 -1 34 -17 26 -15 46 -29
45 -29z m56 -55 c78 -12 96 -19 182 -69 34 -19 54 -36 46 -38 -8 -3 -31 -22
-53 -44 -22 -21 -55 -45 -73 -53 -19 -8 -34 -19 -34 -24 0 -6 -13 -8 -32 -4
-22 4 -29 3 -24 -5 5 -8 2 -10 -8 -6 -9 4 -16 1 -16 -6 0 -7 -7 -10 -15 -7 -8
4 -17 1 -21 -5 -5 -7 -2 -8 6 -3 9 5 11 4 6 -4 -4 -6 -16 -9 -27 -6 -14 5 -19
1 -19 -12 -1 -10 -21 21 -46 69 -26 50 -68 111 -99 142 l-53 56 36 9 c87 23
147 25 244 10z m-298 -48 c65 -40 168 -215 181 -306 3 -22 2 -33 -2 -24 -9 17
-42 17 -53 0 -3 -6 -16 19 -27 55 -14 42 -17 61 -9 55 7 -6 15 -9 18 -6 8 8
-3 55 -12 55 -5 0 -12 10 -16 22 -6 19 -7 19 -16 5 -5 -10 -6 -23 -2 -30 13
-23 -12 7 -51 62 -21 29 -56 66 -77 81 l-38 28 27 10 c39 15 42 14 77 -7z
m3304 -15 c43 -19 72 -56 72 -95 0 -107 -159 -323 -334 -453 -72 -54 -265
-158 -292 -158 -8 0 -10 49 -6 168 3 99 0 202 -7 254 -10 76 -40 206 -57 251
-4 11 1 18 18 22 150 37 527 44 606 11z m-658 -62 c28 -91 25 -129 -7 -102 -7
6 -16 8 -20 4 -4 -3 -17 21 -30 55 l-23 62 22 24 c12 13 25 23 29 23 5 0 17
-30 29 -66z m-1880 46 c8 -5 11 -10 5 -10 -5 0 -17 5 -25 10 -8 5 -10 10 -5
10 6 0 17 -5 25 -10z m-825 -71 c55 -59 117 -185 141 -285 26 -114 21 -338 -9
-378 -8 -10 -41 -19 -102 -26 -186 -21 -392 -8 -563 35 -160 41 -218 91 -193
167 27 79 233 281 406 396 61 41 250 142 266 142 4 0 28 -23 54 -51z m2533
-13 c-10 -7 -15 -15 -12 -18 17 -17 -141 -110 -241 -141 -127 -40 -217 -51
-415 -52 -194 0 -390 18 -390 37 0 5 -5 6 -10 3 -15 -9 -90 5 -90 16 0 5 9 9
20 9 18 0 25 10 21 33 -1 10 83 -4 87 -14 2 -5 17 -5 34 -2 18 3 29 2 26 -3
-14 -21 453 -26 567 -5 95 17 300 86 361 121 52 31 70 38 42 16z m-43 -391
c-42 -287 -117 -538 -245 -812 -35 -77 -48 -95 -77 -108 -41 -20 -49 -15 -32
17 12 22 11 22 -6 8 -17 -14 -18 -14 -6 8 6 12 7 22 2 22 -5 0 -11 -6 -14 -12
-3 -10 -7 -10 -19 -1 -11 10 -24 8 -64 -8 -27 -11 -39 -18 -26 -15 27 5 29
-10 2 -24 -11 -6 -20 -17 -20 -24 0 -16 -131 -40 -184 -34 -20 2 -36 0 -36 -4
0 -4 -73 -8 -162 -8 -89 0 -159 3 -156 6 4 3 71 6 150 6 106 0 146 4 156 14
10 11 5 12 -28 8 -26 -4 -40 -2 -40 5 0 6 -5 11 -11 11 -6 0 -9 -7 -5 -15 3
-8 2 -15 -3 -15 -10 0 -24 47 -17 59 3 4 -2 8 -10 8 -8 0 -13 -6 -9 -14 3 -7
8 -20 11 -28 3 -8 1 -15 -5 -15 -6 0 -11 6 -12 13 0 9 -2 9 -6 -1 -3 -8 -11
-5 -24 10 -14 17 -17 18 -13 5 5 -15 3 -16 -17 -8 -14 5 -34 5 -48 0 -19 -8
-22 -6 -17 6 3 8 1 15 -5 15 -6 0 -7 5 -3 12 5 8 0 9 -17 4 -13 -4 -35 -10
-48 -13 -22 -5 -23 -4 -10 9 8 9 17 14 22 11 4 -2 7 6 7 18 0 17 -3 19 -13 10
-8 -6 -17 -8 -21 -4 -4 4 -4 0 0 -10 3 -10 1 -17 -5 -17 -6 0 -11 5 -11 10 0
6 -8 10 -17 10 -15 0 -16 2 -3 10 12 8 10 10 -10 10 -15 0 -31 -5 -37 -11 -6
-6 -17 -9 -25 -6 -9 4 -5 8 10 12 12 4 22 12 22 17 0 5 -6 6 -12 2 -9 -5 -9
-2 1 9 12 15 11 17 -3 17 -9 0 -16 -5 -16 -11 0 -5 -4 -7 -10 -4 -5 3 -10 1
-10 -5 0 -6 -4 -9 -9 -6 -5 4 -11 1 -13 -6 -3 -7 -7 -5 -11 5 -5 13 0 20 18
27 16 6 23 15 19 25 -7 17 -30 20 -39 5 -3 -5 -11 -10 -18 -10 -8 0 -8 3 1 12
15 15 16 48 2 48 -6 0 -15 11 -20 25 -9 25 -30 35 -30 14 0 -5 -5 -7 -10 -4
-6 4 -4 12 6 22 12 13 13 18 2 24 -7 4 -13 21 -14 36 -5 65 -14 135 -20 144
-3 5 0 16 6 24 10 12 10 19 -1 32 -11 13 -11 17 -1 21 10 3 10 7 1 18 -16 20
-17 74 -1 90 7 8 9 14 3 14 -6 0 -11 7 -11 16 0 14 3 14 15 4 19 -16 19 -1 0
20 -11 12 -12 17 -3 18 42 3 58 7 58 14 0 15 -23 20 -31 7 -13 -22 -19 -5 -10
28 5 16 6 43 4 59 -4 23 -3 27 7 17 10 -9 17 -7 33 8 21 19 63 27 52 10 -3 -5
-1 -12 5 -16 5 -3 10 -1 10 5 0 6 5 8 10 5 18 -11 10 1 -17 26 -14 13 -23 18
-18 10 5 -8 4 -12 -1 -8 -10 6 -11 64 -1 74 6 6 11 -20 8 -39 0 -5 4 -8 10 -8
6 0 9 7 6 15 -4 8 -1 17 5 21 6 4 8 3 4 -4 -11 -18 10 -22 30 -7 19 15 19 15
0 8 -13 -4 -17 -3 -12 5 4 7 13 12 21 12 8 0 17 5 21 12 4 6 3 8 -4 4 -6 -3
-13 -2 -16 3 -3 5 3 11 13 14 12 3 22 -1 26 -11 3 -8 8 -12 11 -9 4 3 12 0 19
-6 9 -9 10 -16 3 -25 -8 -9 -7 -11 7 -6 9 4 20 2 24 -5 6 -9 15 -9 36 -1 16 6
34 9 40 6 6 -2 17 5 24 16 12 19 11 20 -6 14 -14 -6 -15 -5 -6 5 10 10 16 9
29 -2 10 -8 15 -9 11 -2 -4 6 -3 14 3 18 6 4 8 10 6 13 -2 4 9 8 25 8 19 1 29
-3 26 -10 -3 -6 2 -17 9 -24 12 -11 14 -9 14 7 0 14 9 22 33 27 17 4 26 9 20
11 -14 5 -18 24 -5 22 21 -4 32 3 32 18 0 15 -2 14 -16 -3 -15 -19 -16 -19
-10 1 6 19 5 19 -8 2 -15 -19 -41 -14 -50 10 -6 14 3 15 64 11 38 -3 77 -11
85 -18 9 -7 15 -8 15 -2 0 6 45 13 108 16 214 13 400 59 537 134 l50 27 3 -90
c2 -49 -4 -139 -13 -200z m-1125 251 c0 -3 -4 -8 -10 -11 -5 -3 -10 -1 -10 4
0 6 5 11 10 11 6 0 10 -2 10 -4z m-10 -66 c20 -6 17 -8 -17 -6 -24 0 -43 4
-43 9 0 9 27 8 60 -3z m-30 -30 c0 -5 -2 -10 -4 -10 -3 0 -8 5 -11 10 -3 6 -1
10 4 10 6 0 11 -4 11 -10z m197 -6 c-3 -3 -12 -4 -19 -1 -8 3 -5 6 6 6 11 1
17 -2 13 -5z m-157 -25 c0 -11 -27 -12 -34 -1 -2 4 4 9 15 9 10 1 19 -2 19 -8z
m200 -41 c0 -5 -9 -8 -20 -8 -18 0 -19 3 -9 21 9 17 13 19 20 8 5 -8 9 -17 9
-21z m-83 -7 c0 -11 -6 -17 -14 -14 -20 8 -15 -24 5 -33 9 -4 20 -6 25 -6 4 1
7 -2 7 -7 0 -5 -13 -14 -30 -20 -34 -11 -39 -5 -12 16 16 13 15 14 -6 10 -12
-3 -20 -1 -16 4 3 5 -3 9 -13 9 -17 1 -16 2 2 16 11 8 19 20 17 25 -1 6 2 8 7
5 5 -4 12 -2 16 4 9 15 14 12 12 -9z m168 9 c-3 -5 2 -10 11 -10 10 0 15 -2
12 -5 -3 -4 -18 -3 -33 1 -20 5 -23 9 -13 15 18 12 31 11 23 -1z m-360 -40
c-3 -5 -14 -10 -23 -10 -15 0 -15 2 -2 10 20 13 33 13 25 0z m245 0 c-8 -5
-24 -10 -35 -10 -17 0 -17 2 -5 10 8 5 24 10 35 10 17 0 17 -2 5 -10z m-294
-89 c-9 -13 -36 -15 -36 -2 0 6 5 13 10 16 6 4 7 12 4 18 -4 7 1 5 11 -5 9 -9
14 -21 11 -27z m-16 -27 c0 -3 -13 -3 -29 -2 -16 1 -28 5 -26 9 5 6 55 0 55
-7z m-115 -264 c3 -5 1 -10 -4 -10 -6 0 -11 5 -11 10 0 6 2 10 4 10 3 0 8 -4
11 -10z m15 -180 c0 -5 -5 -10 -11 -10 -5 0 -7 5 -4 10 3 6 8 10 11 10 2 0 4
-4 4 -10z m-47 -54 c6 -15 -29 -33 -40 -22 -4 3 -1 6 5 6 6 0 9 7 6 15 -4 9 0
15 9 15 8 0 17 -7 20 -14z m44 8 c-3 -3 -12 -4 -19 -1 -8 3 -5 6 6 6 11 1 17
-2 13 -5z m9 -29 c-25 -19 -41 -19 -24 0 7 8 20 14 28 14 11 0 10 -3 -4 -14z
m-1016 -119 c274 -186 592 -318 930 -386 205 -41 350 -53 581 -48 l200 4 -33
-29 c-407 -346 -926 -549 -1445 -564 -284 -9 -466 18 -710 106 -65 23 -115 36
-118 31 -10 -17 2 -27 71 -56 l66 -28 -7 -35 c-26 -141 -104 -292 -204 -392
-112 -112 -245 -184 -416 -224 -70 -16 -315 -33 -315 -22 0 3 22 35 49 71 61
81 87 148 116 306 13 69 33 151 45 182 31 82 97 167 163 208 31 19 55 39 54
43 -1 5 -29 19 -61 32 -125 51 -174 104 -272 295 -48 94 -73 129 -134 191 -43
43 -96 85 -124 99 l-50 24 41 17 c132 56 351 69 501 30 166 -43 286 -113 398
-234 62 -66 122 -152 139 -198 5 -13 -10 -26 -64 -55 -69 -37 -80 -47 -63 -58
13 -8 121 47 182 92 166 125 289 375 315 640 l8 73 31 -25 c17 -14 74 -55 126
-90z m965 74 c3 -5 -1 -10 -10 -10 -9 0 -13 5 -10 10 3 6 8 10 10 10 2 0 7 -4
10 -10z m42 -50 c-1 -11 -5 -20 -9 -20 -4 0 -8 9 -8 20 0 11 4 20 9 20 6 0 9
-9 8 -20z m36 5 c-3 -9 -8 -14 -10 -11 -3 3 -2 9 2 15 9 16 15 13 8 -4z m62
-75 c-3 -5 -15 -10 -26 -10 -11 0 -17 5 -14 10 3 6 15 10 26 10 11 0 17 -4 14
-10z m-75 -20 c0 -5 -2 -10 -4 -10 -3 0 -8 5 -11 10 -3 6 -1 10 4 10 6 0 11
-4 11 -10z m60 -60 c0 -5 -5 -10 -11 -10 -5 0 -7 5 -4 10 3 6 8 10 11 10 2 0
4 -4 4 -10z m870 -54 c0 -2 -7 -7 -16 -10 -8 -3 -12 -2 -9 4 6 10 25 14 25 6z
m-702 -18 c-3 -7 -12 -14 -21 -16 -12 -2 -15 1 -11 12 7 19 38 22 32 4z m108
-41 c1 -11 -5 -17 -19 -17 -20 0 -21 0 -1 16 10 8 13 13 7 9 -7 -3 -13 -1 -13
5 0 18 23 6 26 -13z m544 3 c8 -5 11 -10 5 -10 -5 0 -17 5 -25 10 -8 5 -10 10
-5 10 6 0 17 -5 25 -10z m180 -1 c0 -25 -68 -78 -119 -93 -65 -19 -266 -50
-284 -43 -6 3 -2 6 9 6 23 1 48 24 37 34 -3 4 -16 7 -27 8 -12 1 33 9 99 20
120 19 251 54 261 70 7 13 24 11 24 -2z m-660 -13 c0 -3 -4 -8 -10 -11 -5 -3
-10 -1 -10 4 0 6 5 11 10 11 6 0 10 -2 10 -4z m167 -82 c-3 -3 -12 -4 -19 -1
-8 3 -5 6 6 6 11 1 17 -2 13 -5z m-410 -40 c-3 -3 -12 -4 -19 -1 -8 3 -5 6 6
6 11 1 17 -2 13 -5z"/>
<path d="M5305 7496 c-86 -41 -154 -132 -122 -164 12 -12 24 -9 83 21 38 19
88 41 112 48 42 12 82 49 82 75 0 20 -41 44 -75 44 -16 0 -52 -11 -80 -24z"/>
<path d="M5356 7100 c-54 -17 -127 -74 -165 -132 -70 -103 -76 -242 -16 -344
26 -45 54 -71 42 -40 -18 46 -27 151 -18 199 30 163 132 260 270 260 143 0
242 -83 297 -248 l14 -40 -6 40 c-2 22 -14 67 -26 100 -29 79 -120 174 -192
198 -52 18 -152 21 -200 7z"/>
<path d="M5405 7005 c-60 -16 -128 -82 -144 -141 -27 -96 -7 -210 49 -281 11
-14 20 -29 20 -33 0 -4 -19 -13 -42 -20 -47 -13 -102 -39 -96 -45 2 -2 35 5
73 17 105 30 298 35 393 10 81 -21 96 -13 25 14 -27 10 -49 19 -51 20 -2 1 8
19 22 41 49 75 58 191 22 277 -25 61 -93 124 -149 141 -59 18 -57 18 -122 0z
m149 -86 c44 -34 25 -109 -27 -109 -50 0 -76 72 -40 112 21 23 34 23 67 -3z"/>
<path d="M5470 5223 c0 -1 13 -8 30 -16 19 -10 32 -12 36 -6 3 6 12 8 18 6 7
-3 13 1 13 9 0 17 -9 18 -25 2 -7 -7 -12 -8 -12 -2 0 5 -13 9 -30 9 -16 0 -30
-1 -30 -2z"/>
<path d="M5590 5195 c0 -8 29 -12 39 -5 9 5 4 8 -13 8 -14 0 -26 -2 -26 -3z"/>
<path d="M6290 5141 c0 -5 7 -12 16 -15 14 -5 15 -4 4 9 -14 17 -20 19 -20 6z"/>
<path d="M6235 5129 c-4 -6 -4 -13 -1 -16 3 -4 6 -1 6 5 0 6 6 9 14 6 8 -3 17
-1 21 5 3 7 -2 11 -14 11 -11 0 -23 -5 -26 -11z"/>
<path d="M6135 5100 c3 -5 8 -10 11 -10 2 0 4 5 4 10 0 6 -5 10 -11 10 -5 0
-7 -4 -4 -10z"/>
<path d="M6295 5100 c3 -5 8 -10 11 -10 2 0 4 5 4 10 0 6 -5 10 -11 10 -5 0
-7 -4 -4 -10z"/>
<path d="M6055 5090 c4 -6 11 -8 16 -5 14 9 11 15 -7 15 -8 0 -12 -5 -9 -10z"/>
<path d="M5760 5075 c0 -8 -4 -15 -10 -15 -25 0 -7 -15 19 -16 21 -1 28 3 24
12 -3 8 0 14 6 14 6 0 11 5 11 12 0 9 -3 9 -12 0 -15 -15 -32 -16 -23 -2 3 6
1 10 -4 10 -6 0 -11 -7 -11 -15z"/>
<path d="M6160 5076 c0 -2 7 -9 15 -16 9 -7 15 -8 15 -2 0 5 -7 12 -15 16 -8
3 -15 4 -15 2z"/>
<path d="M5730 5021 c0 -6 5 -13 10 -16 6 -3 10 1 10 9 0 9 -4 16 -10 16 -5 0
-10 -4 -10 -9z"/>
<path d="M5810 5020 c0 -5 5 -10 10 -10 6 0 10 5 10 10 0 6 -4 10 -10 10 -5 0
-10 -4 -10 -10z"/>
<path d="M6055 5020 c-3 -5 -1 -10 4 -10 6 0 11 5 11 10 0 6 -2 10 -4 10 -3 0
-8 -4 -11 -10z"/>
<path d="M5607 4991 c-3 -12 1 -22 10 -25 21 -8 22 -8 18 12 -2 9 -4 20 -4 25
-2 15 -19 6 -24 -12z"/>
<path d="M5700 4991 c-18 -5 -21 -9 -11 -15 8 -5 19 -2 29 8 9 9 14 16 12 15
-3 -1 -16 -4 -30 -8z"/>
<path d="M5366 4965 c-4 -14 -11 -23 -16 -20 -6 3 -10 -1 -10 -9 0 -10 -6 -13
-15 -10 -8 4 -15 1 -15 -5 0 -21 37 -11 50 14 7 13 16 24 19 23 26 -3 32 3 17
17 -20 20 -23 19 -30 -10z"/>
<path d="M5850 4980 c0 -5 5 -10 10 -10 6 0 10 5 10 10 0 6 -4 10 -10 10 -5 0
-10 -4 -10 -10z"/>
<path d="M5768 4973 c7 -3 16 -2 19 1 4 3 -2 6 -13 5 -11 0 -14 -3 -6 -6z"/>
<path d="M6441 4964 c0 -11 3 -14 6 -6 3 7 2 16 -1 19 -3 4 -6 -2 -5 -13z"/>
<path d="M5405 4940 c-3 -5 1 -10 9 -10 9 0 16 5 16 10 0 6 -4 10 -9 10 -6 0
-13 -4 -16 -10z"/>
<path d="M5495 4940 c3 -5 8 -10 11 -10 2 0 4 5 4 10 0 6 -5 10 -11 10 -5 0
-7 -4 -4 -10z"/>
<path d="M5570 4940 c0 -5 5 -10 10 -10 6 0 10 5 10 10 0 6 -4 10 -10 10 -5 0
-10 -4 -10 -10z"/>
<path d="M5650 4940 c0 -5 4 -10 9 -10 6 0 13 5 16 10 3 6 -1 10 -9 10 -9 0
-16 -4 -16 -10z"/>
<path d="M5730 4941 c0 -6 5 -13 10 -16 6 -3 10 1 10 9 0 9 -4 16 -10 16 -5 0
-10 -4 -10 -9z"/>
<path d="M5810 4940 c0 -5 5 -10 10 -10 6 0 10 5 10 10 0 6 -4 10 -10 10 -5 0
-10 -4 -10 -10z"/>
<path d="M5890 4940 c0 -5 5 -10 10 -10 6 0 10 5 10 10 0 6 -4 10 -10 10 -5 0
-10 -4 -10 -10z"/>
<path d="M5694 4909 c-3 -6 0 -18 9 -26 13 -13 14 -12 10 11 -6 29 -9 31 -19
15z"/>
<path d="M5370 4900 c0 -5 5 -10 11 -10 5 0 7 5 4 10 -3 6 -8 10 -11 10 -2 0
-4 -4 -4 -10z"/>
<path d="M5445 4900 c-3 -6 1 -7 9 -4 18 7 21 14 7 14 -6 0 -13 -4 -16 -10z"/>
<path d="M5525 4900 c-3 -5 1 -10 9 -10 9 0 16 5 16 10 0 6 -4 10 -9 10 -6 0
-13 -4 -16 -10z"/>
<path d="M5850 4900 c0 -5 5 -10 10 -10 6 0 10 5 10 10 0 6 -4 10 -10 10 -5 0
-10 -4 -10 -10z"/>
<path d="M5780 4891 c0 -6 4 -13 10 -16 6 -3 7 1 4 9 -7 18 -14 21 -14 7z"/>
<path d="M5263 4884 c-7 -3 -9 -12 -6 -20 3 -9 -2 -14 -16 -14 -12 0 -21 -5
-21 -11 0 -6 9 -8 21 -4 12 4 24 2 28 -4 4 -6 7 5 8 24 1 19 0 35 0 34 -1 0
-7 -3 -14 -5z"/>
<path d="M5740 4869 c0 -11 -69 -16 -73 -5 -5 16 -24 -2 -32 -31 -3 -15 -12
-31 -18 -35 -9 -6 -9 -8 1 -8 7 0 15 7 18 15 4 8 10 12 15 9 5 -3 9 -2 9 3 0
4 37 7 82 6 58 -1 71 1 43 6 -35 6 -37 8 -18 14 18 7 20 11 11 21 -13 14 -38
17 -38 5z"/>
<path d="M5415 4860 c-3 -5 -1 -10 4 -10 6 0 11 5 11 10 0 6 -2 10 -4 10 -3 0
-8 -4 -11 -10z"/>
<path d="M5805 4860 c-3 -5 1 -10 9 -10 9 0 16 5 16 10 0 6 -4 10 -9 10 -6 0
-13 -4 -16 -10z"/>
<path d="M5970 4860 c0 -5 5 -10 10 -10 6 0 10 5 10 10 0 6 -4 10 -10 10 -5 0
-10 -4 -10 -10z"/>
<path d="M5860 4835 c0 -9 6 -12 15 -9 8 4 15 7 15 9 0 2 -7 5 -15 9 -9 3 -15
0 -15 -9z"/>
<path d="M5296 4827 c3 -10 9 -15 12 -12 3 3 0 11 -7 18 -10 9 -11 8 -5 -6z"/>
<path d="M5929 4821 c7 -5 9 -11 5 -13 -5 -3 -3 -3 4 -1 8 1 21 3 30 4 14 0
13 2 -3 9 -11 5 -27 9 -35 9 -12 1 -13 -1 -1 -8z"/>
<path d="M5220 4811 c0 -5 10 -11 21 -14 16 -4 20 -11 16 -26 -3 -12 -1 -19 4
-15 14 9 10 30 -9 47 -21 19 -32 22 -32 8z"/>
<path d="M5415 4780 c-3 -5 -1 -10 4 -10 6 0 11 5 11 10 0 6 -2 10 -4 10 -3 0
-8 -4 -11 -10z"/>
<path d="M5215 4730 c-3 -5 -2 -10 4 -10 5 0 13 5 16 10 3 6 2 10 -4 10 -5 0
-13 -4 -16 -10z"/>
<path d="M5256 4695 c4 -8 8 -15 10 -15 2 0 4 7 4 15 0 8 -4 15 -10 15 -5 0
-7 -7 -4 -15z"/>
<path d="M5810 4669 c0 -5 5 -7 10 -4 6 3 10 8 10 11 0 2 -4 4 -10 4 -5 0 -10
-5 -10 -11z"/>
<path d="M5840 4668 c0 -6 3 -8 7 -5 3 4 15 -1 25 -10 23 -21 58 -25 51 -6 -3
7 -9 10 -14 7 -5 -3 -9 -1 -9 5 0 6 -6 8 -14 5 -8 -3 -17 -1 -21 5 -8 15 -25
14 -25 -1z"/>
<path d="M5812 4626 c-6 -13 -14 -76 -18 -140 l-7 -116 25 0 c28 0 82 26 129
63 32 25 34 31 35 87 1 33 -3 60 -8 60 -6 0 -8 6 -5 13 3 9 -6 14 -26 15 -17
2 -41 12 -52 22 -29 27 -59 25 -73 -4z m38 10 c0 -3 -4 -8 -10 -11 -5 -3 -10
-1 -10 4 0 6 5 11 10 11 6 0 10 -2 10 -4z m37 -50 c-2 -6 3 -16 12 -23 14 -11
14 -12 -3 -13 -10 0 -25 -8 -32 -17 -12 -16 -13 -14 -4 11 6 16 9 35 6 41 -2
6 2 12 10 12 8 0 13 -5 11 -11z m48 4 c3 -5 2 -17 -3 -26 -8 -14 -10 -12 -14
10 -5 26 5 35 17 16z m2 -56 c-3 -3 -12 -4 -19 -1 -8 3 -5 6 6 6 11 1 17 -2
13 -5z"/>
<path d="M5210 4579 c0 -5 5 -7 10 -4 6 3 10 8 10 11 0 2 -4 4 -10 4 -5 0 -10
-5 -10 -11z"/>
<path d="M5646 4558 c-3 -13 -5 -45 -4 -73 1 -46 1 -44 8 20 8 74 7 91 -4 53z"/>
<path d="M6122 4500 c0 -14 2 -19 5 -12 2 6 2 18 0 25 -3 6 -5 1 -5 -13z"/>
<path d="M5210 4341 c0 -5 5 -13 10 -16 6 -3 10 -2 10 4 0 5 -4 13 -10 16 -5
3 -10 2 -10 -4z"/>
<path d="M5668 4238 c-3 -7 2 -19 9 -26 10 -11 11 -17 2 -28 -9 -11 -8 -14 5
-14 9 0 15 3 15 8 -3 19 2 25 12 12 8 -12 9 -11 7 5 -2 16 2 19 20 17 12 -2
22 2 22 7 0 17 28 13 40 -6 10 -16 11 -16 6 -1 -3 10 2 19 12 22 9 2 -7 4 -37
3 -40 0 -58 -6 -72 -21 -19 -20 -19 -20 -19 2 0 24 -16 38 -22 20z"/>
<path d="M5980 4199 c0 -5 5 -7 10 -4 6 3 10 8 10 11 0 2 -4 4 -10 4 -5 0 -10
-5 -10 -11z"/>
<path d="M5847 4187 c-3 -9 -1 -18 6 -21 7 -2 5 -5 -4 -5 -19 -1 -48 -31 -30
-31 6 0 11 4 11 8 0 5 6 9 13 9 6 0 21 4 32 8 17 6 17 4 -4 -14 -24 -22 -21
-25 17 -15 16 5 21 12 17 23 -5 12 -3 13 5 5 19 -19 49 -6 42 18 -3 14 -1 19
6 14 7 -4 12 -2 12 4 0 8 -7 9 -17 5 -71 -30 -72 -30 -86 -11 -12 16 -15 17
-20 3z"/>
<path d="M5365 4180 c-3 -5 1 -10 9 -10 9 0 16 5 16 10 0 6 -4 10 -9 10 -6 0
-13 -4 -16 -10z"/>
<path d="M5535 4180 c-3 -5 -1 -10 4 -10 6 0 11 5 11 10 0 6 -2 10 -4 10 -3 0
-8 -4 -11 -10z"/>
<path d="M5615 4180 c-3 -5 -1 -10 5 -10 6 0 8 -5 4 -12 -4 -7 -3 -8 4 -4 6 4
9 13 5 21 -6 18 -10 19 -18 5z"/>
<path d="M5772 4181 c-11 -6 -9 -9 6 -13 15 -4 19 -2 15 8 -6 16 -4 16 -21 5z"/>
<path d="M5975 4158 c-14 -15 -33 -28 -42 -28 -9 0 -14 -2 -11 -5 3 -3 19 -2
37 1 21 5 30 11 27 20 -4 9 2 13 16 11 14 -1 24 4 26 14 5 25 -25 18 -53 -13z"/>
<path d="M5575 4170 c-16 -7 -17 -9 -3 -9 9 -1 20 4 23 9 7 11 7 11 -20 0z"/>
<path d="M5406 4141 c-3 -5 1 -11 9 -15 9 -3 15 0 15 9 0 16 -16 20 -24 6z"/>
<path d="M5650 4140 c0 -6 -6 -8 -12 -4 -7 4 -9 3 -5 -1 10 -12 37 -15 37 -5
0 5 -4 12 -10 15 -5 3 -10 1 -10 -5z"/>
<path d="M5735 4140 c-3 -5 -1 -10 4 -10 6 0 11 5 11 10 0 6 -2 10 -4 10 -3 0
-8 -4 -11 -10z"/>
<path d="M6050 4140 c0 -5 5 -10 10 -10 6 0 10 5 10 10 0 6 -4 10 -10 10 -5 0
-10 -4 -10 -10z"/>
<path d="M5780 4130 c-9 -6 -10 -10 -3 -10 6 0 15 5 18 10 8 12 4 12 -15 0z"/>
<path d="M5527 4103 c-12 -11 -8 -23 7 -23 8 0 16 7 20 15 5 15 -14 21 -27 8z"/>
<path d="M5610 4100 c0 -5 5 -10 11 -10 5 0 7 5 4 10 -3 6 -8 10 -11 10 -2 0
-4 -4 -4 -10z"/>
<path d="M5695 4100 c-3 -5 -1 -10 4 -10 6 0 11 5 11 10 0 6 -2 10 -4 10 -3 0
-8 -4 -11 -10z"/>
<path d="M5835 4100 c-2 -3 5 -7 16 -7 10 -1 19 2 19 6 0 9 -29 10 -35 1z"/>
<path d="M6010 4100 c0 -5 5 -10 10 -10 6 0 10 5 10 10 0 6 -4 10 -10 10 -5 0
-10 -4 -10 -10z"/>
<path d="M5562 4058 c6 -18 28 -21 28 -4 0 9 -7 16 -16 16 -9 0 -14 -5 -12
-12z"/>
<path d="M5730 4061 c0 -6 5 -13 10 -16 6 -3 10 1 10 9 0 9 -4 16 -10 16 -5 0
-10 -4 -10 -9z"/>
<path d="M5980 4065 c0 -5 5 -17 10 -25 5 -8 10 -10 10 -5 0 6 -5 17 -10 25
-5 8 -10 11 -10 5z"/>
<path d="M4186 2219 c-72 -57 16 -157 92 -103 32 22 30 76 -4 103 -15 12 -34
21 -44 21 -10 0 -29 -9 -44 -21z"/>
<path d="M3182 2218 c-9 -9 -12 -76 -12 -239 0 -201 2 -229 18 -248 21 -26 77
-37 115 -22 23 9 27 16 27 50 0 30 -5 43 -20 51 -19 10 -20 21 -20 205 0 182
-1 195 -19 205 -26 14 -74 13 -89 -2z"/>
<path d="M3788 2219 c-16 -9 -18 -32 -18 -254 0 -231 1 -245 19 -255 29 -15
67 -12 85 6 12 12 16 37 16 107 0 102 14 137 54 137 39 0 46 -18 46 -126 0
-80 3 -106 16 -118 18 -18 56 -21 85 -6 17 10 19 22 19 136 0 167 -17 206 -95
224 -33 8 -62 4 -107 -15 -16 -6 -18 1 -18 74 0 69 -3 82 -19 91 -25 13 -61
12 -83 -1z"/>
<path d="M6682 2217 c-7 -8 -12 -99 -13 -251 -2 -222 -1 -240 16 -253 26 -19
69 -16 88 5 13 15 17 39 17 113 0 110 10 133 55 127 l30 -3 5 -111 c6 -125 15
-144 66 -144 56 0 64 17 64 146 0 164 -24 213 -112 229 -22 4 -48 1 -71 -9
l-37 -15 0 79 c0 68 -3 81 -19 90 -27 14 -76 13 -89 -3z"/>
<path d="M7848 2219 c-16 -9 -18 -31 -18 -240 l0 -230 25 -24 c28 -28 89 -34
120 -11 26 19 25 76 -3 94 -21 14 -22 21 -22 208 0 181 -1 194 -19 204 -25 13
-61 12 -83 -1z"/>
<path d="M2270 2200 c-32 -32 -21 -110 15 -110 22 0 22 -255 0 -264 -23 -8
-36 -52 -25 -80 14 -37 66 -49 184 -44 114 6 163 22 214 71 57 54 76 102 76
187 0 89 -21 137 -83 193 -55 50 -120 67 -253 67 -95 0 -110 -2 -128 -20z
m270 -125 c16 -9 37 -30 46 -47 21 -40 14 -120 -12 -149 -24 -27 -75 -49 -114
-49 l-30 0 0 130 0 130 40 0 c23 0 54 -7 70 -15z"/>
<path d="M4926 2199 c-28 -22 -34 -56 -16 -90 6 -10 17 -19 25 -19 13 0 15
-29 15 -179 0 -202 3 -211 69 -211 52 0 71 23 71 88 l0 52 50 0 c141 0 231
108 198 237 -15 61 -70 116 -131 131 -25 7 -93 12 -150 12 -90 0 -108 -3 -131
-21z m264 -129 c45 -45 10 -110 -60 -110 l-40 0 0 65 0 65 40 0 c27 0 47 -7
60 -20z"/>
<path d="M2880 2073 c-96 -36 -140 -174 -89 -280 41 -84 151 -118 239 -73 127
65 127 274 0 341 -33 18 -116 25 -150 12z m103 -118 c36 -35 28 -113 -12 -134
-24 -13 -65 0 -75 24 -29 77 37 160 87 110z"/>
<path d="M3398 2073 c-25 -6 -26 -18 -33 -269 -6 -248 -5 -254 60 -254 53 0
65 20 65 105 l0 73 31 -15 c56 -28 125 -3 173 61 18 23 21 42 21 116 0 98 -12
124 -75 168 -40 27 -84 28 -129 4 -33 -18 -35 -18 -53 0 -18 18 -27 20 -60 11z
m180 -119 c27 -19 31 -93 6 -118 -20 -20 -58 -20 -78 0 -23 23 -21 89 4 114
24 24 38 25 68 4z"/>
<path d="M4506 2061 c-35 -18 -42 -19 -56 -6 -25 22 -66 19 -84 -7 -13 -18
-16 -53 -16 -170 0 -164 5 -178 65 -178 53 0 65 26 65 140 0 101 7 120 45 120
38 0 45 -19 45 -126 0 -116 9 -134 65 -134 61 0 68 17 63 160 -3 99 -8 133
-21 153 -40 61 -109 80 -171 48z"/>
<path d="M5406 2067 c-15 -11 -18 -32 -18 -177 0 -146 2 -165 18 -177 21 -16
58 -17 85 -3 17 10 19 22 19 108 0 115 8 131 69 139 34 5 45 11 52 32 14 37 3
70 -29 82 -22 9 -34 7 -65 -9 -38 -21 -38 -21 -58 -1 -22 22 -48 24 -73 6z"/>
<path d="M5745 2066 c-74 -32 -115 -123 -97 -214 14 -67 44 -110 96 -133 80
-36 208 -11 222 45 13 53 -23 89 -65 67 -43 -24 -131 -7 -131 24 0 11 21 15
98 17 l97 3 0 62 c0 52 -4 66 -25 88 -14 15 -37 33 -52 41 -34 17 -103 17
-143 0z m94 -86 c10 -5 21 -16 25 -25 4 -12 -4 -15 -49 -15 -45 0 -53 3 -48
16 3 9 15 20 27 24 28 11 25 11 45 0z"/>
<path d="M6091 2068 c-68 -25 -95 -105 -56 -164 9 -14 41 -37 71 -50 61 -27
73 -50 22 -40 -108 20 -107 20 -119 -7 -33 -73 104 -136 204 -93 45 19 68 48
73 93 7 56 -22 96 -88 121 -29 11 -53 26 -53 33 0 14 9 14 76 3 42 -7 64 13
55 50 -12 50 -114 80 -185 54z"/>
<path d="M6412 2059 c-126 -64 -127 -269 -2 -337 74 -39 175 -20 213 39 27 43
-31 103 -70 74 -26 -20 -77 -18 -96 3 -23 26 -22 85 3 107 14 12 28 16 50 11
16 -3 43 -9 58 -12 36 -7 54 14 50 57 -7 69 -121 102 -206 58z"/>
<path d="M7155 2066 c-106 -46 -143 -206 -70 -302 50 -65 154 -84 229 -41 82
46 112 174 63 267 -40 76 -142 111 -222 76z m105 -114 c17 -14 23 -29 23 -62
0 -46 -27 -80 -63 -80 -52 0 -76 105 -31 141 29 24 43 24 71 1z"/>
<path d="M7535 2066 c-120 -53 -140 -241 -36 -329 80 -67 217 -39 268 56 11
20 17 55 18 92 0 142 -128 235 -250 181z m109 -109 c9 -7 20 -31 23 -54 5 -35
2 -45 -20 -67 -14 -14 -31 -26 -37 -26 -6 0 -23 12 -37 26 -22 22 -25 32 -20
67 6 42 27 67 57 67 9 0 24 -6 34 -13z"/>
<path d="M4185 2054 c-13 -13 -15 -40 -13 -177 l3 -162 28 -9 c17 -6 37 -6 55
0 l27 9 3 164 c2 112 -1 168 -9 177 -16 19 -74 18 -94 -2z"/>
</g>
</svg>
